<svg width="109" height="23" viewBox="0 0 109 23" fill="none" xmlns="http://www.w3.org/2000/svg">
<g clip-path="url(#clip0)">
<path fill-rule="evenodd" clip-rule="evenodd" d="M65.4126 12.9401C65.4126 13.2188 65.4049 13.4473 65.3903 13.6253C65.3753 13.8038 65.3534 13.9431 65.3236 14.0434C65.294 14.1444 65.2552 14.2146 65.2074 14.2528C65.159 14.2918 65.0974 14.311 65.0234 14.311C64.964 14.311 64.8979 14.2977 64.8239 14.2699C64.7496 14.2427 64.6665 14.2146 64.5735 14.1836C64.4809 14.1521 64.3791 14.1234 64.2686 14.0963C64.1573 14.0691 64.035 14.0553 63.9013 14.0553C63.7462 14.0553 63.5905 14.0881 63.4349 14.1544C63.2797 14.2199 63.1186 14.3229 62.9516 14.4623C62.785 14.6016 62.6108 14.7871 62.4292 15.0195C62.2479 15.2519 62.0535 15.5382 61.8464 15.8793V22.3382C61.8464 22.4155 61.824 22.4837 61.7798 22.542C61.735 22.5997 61.6592 22.6479 61.5516 22.687C61.4444 22.7261 61.3016 22.7543 61.124 22.7744C60.9465 22.7934 60.7201 22.8034 60.4463 22.8034C60.1725 22.8034 59.9462 22.7934 59.7687 22.7744C59.5907 22.7543 59.4479 22.7261 59.341 22.687C59.2334 22.6479 59.1576 22.5997 59.1129 22.542C59.0686 22.4837 59.0468 22.4155 59.0468 22.3382V11.9758C59.0468 11.8985 59.065 11.8307 59.102 11.7725C59.1389 11.7148 59.2055 11.6661 59.3018 11.6274C59.3981 11.5883 59.5223 11.5592 59.6741 11.5402C59.8257 11.5211 60.0164 11.5111 60.2464 11.5111C60.4833 11.5111 60.68 11.5211 60.8351 11.5402C60.9907 11.5592 61.1108 11.5883 61.1962 11.6274C61.2814 11.6661 61.3426 11.7148 61.38 11.7725C61.4166 11.8307 61.4348 11.8985 61.4348 11.9758V13.2651C61.6944 12.8781 61.939 12.5589 62.1685 12.3073C62.3976 12.0555 62.6162 11.856 62.8244 11.7086C63.0314 11.5617 63.2387 11.459 63.4459 11.4009C63.653 11.3426 63.8611 11.3135 64.0683 11.3135C64.1641 11.3135 64.2686 11.3197 64.3791 11.3312C64.4905 11.3426 64.6055 11.3622 64.7241 11.3888C64.8423 11.4165 64.9458 11.4471 65.0348 11.4819C65.1238 11.5172 65.1886 11.554 65.2292 11.5926C65.2698 11.6313 65.2995 11.6738 65.3182 11.7205C65.3365 11.7667 65.3534 11.8307 65.3684 11.9123C65.383 11.9934 65.394 12.1151 65.4013 12.2783C65.409 12.4406 65.4126 12.6615 65.4126 12.9401Z" fill="#1B1918"/>
<path fill-rule="evenodd" clip-rule="evenodd" d="M72.0239 10.5704H72.0125L69.9795 16.9595H74.0569L72.0239 10.5704ZM78.623 21.5952C78.712 21.8738 78.7677 22.0947 78.79 22.257C78.812 22.4197 78.7823 22.5418 78.7016 22.6229C78.6194 22.7046 78.4752 22.7546 78.2681 22.7742C78.0603 22.7933 77.7752 22.8033 77.4124 22.8033C77.0345 22.8033 76.7403 22.7976 76.5294 22.7856C76.318 22.7742 76.157 22.7508 76.0461 22.7159C75.9348 22.6811 75.8571 22.633 75.8125 22.5709C75.7681 22.5088 75.7308 22.4273 75.7015 22.3271L74.735 19.3062H69.3351L68.4243 22.245C68.3947 22.3542 68.3559 22.4445 68.3075 22.5184C68.2591 22.5919 68.1815 22.6502 68.0743 22.6925C67.9665 22.7355 67.8147 22.7642 67.6188 22.7795C67.4226 22.7952 67.1648 22.8033 66.8463 22.8033C66.5058 22.8033 66.2388 22.7914 66.0464 22.7684C65.8538 22.7451 65.7205 22.6893 65.6465 22.6C65.5727 22.5107 65.5467 22.3848 65.5685 22.2221C65.5909 22.0594 65.6465 21.8428 65.7355 21.5718L70.1684 8.23515C70.2132 8.10355 70.2647 7.99711 70.3241 7.91555C70.3834 7.8344 70.4779 7.77286 70.6075 7.72983C70.7371 7.68737 70.9164 7.66018 71.1464 7.64828C71.3759 7.63692 71.6793 7.6311 72.0572 7.6311C72.494 7.6311 72.8421 7.63692 73.1018 7.64828C73.3609 7.66018 73.5627 7.68737 73.7068 7.72983C73.8516 7.77286 73.9551 7.83628 74.0186 7.92122C74.0811 8.00671 74.1349 8.12302 74.1793 8.27005L78.623 21.5952Z" fill="#1B1918"/>
<path fill-rule="evenodd" clip-rule="evenodd" d="M89.4122 22.3382C89.4122 22.4155 89.3936 22.4837 89.3566 22.5415C89.3196 22.5996 89.2544 22.6479 89.1621 22.687C89.0695 22.7257 88.9473 22.7542 88.7957 22.7742C88.6433 22.7934 88.4525 22.8029 88.2235 22.8029C87.9789 22.8029 87.7804 22.7934 87.6289 22.7742C87.4769 22.7542 87.3565 22.7257 87.2679 22.687C87.1789 22.6479 87.116 22.5996 87.079 22.5415C87.042 22.4837 87.0232 22.4155 87.0232 22.3382V21.142C86.4753 21.7613 85.9176 22.226 85.3513 22.5358C84.7845 22.8454 84.1976 23 83.5903 23C82.9084 23 82.3367 22.8845 81.8734 22.6521C81.4103 22.4193 81.0366 22.1024 80.7514 21.6992C80.4666 21.297 80.2626 20.8299 80.1403 20.2993C80.0181 19.7692 79.9573 19.1088 79.9573 18.3186V11.9757C79.9573 11.8985 79.9775 11.8307 80.0181 11.7726C80.0591 11.7143 80.1331 11.6661 80.2403 11.6274C80.3479 11.5884 80.4926 11.5593 80.6738 11.5401C80.8549 11.521 81.0794 11.511 81.3459 11.511C81.6198 11.511 81.8456 11.521 82.0241 11.5401C82.2016 11.5593 82.3435 11.5884 82.4516 11.6274C82.5585 11.6661 82.6347 11.7143 82.6789 11.7726C82.7232 11.8307 82.7461 11.8985 82.7461 11.9757V17.8305C82.7461 18.373 82.7789 18.7871 82.8459 19.074C82.9122 19.3608 83.0138 19.6065 83.1512 19.8112C83.2882 20.0168 83.4624 20.1757 83.6738 20.2878C83.8845 20.3999 84.131 20.4563 84.4122 20.4563C84.768 20.4563 85.1249 20.3208 85.4845 20.0498C85.8436 19.7787 86.2269 19.3836 86.6345 18.8645V11.9757C86.6345 11.8985 86.6546 11.8307 86.6957 11.7726C86.7362 11.7143 86.8107 11.6661 86.918 11.6274C87.0247 11.5884 87.1675 11.5593 87.3455 11.5401C87.5235 11.521 87.7493 11.511 88.0232 11.511C88.2974 11.511 88.5233 11.521 88.7009 11.5401C88.8783 11.5593 89.0193 11.5884 89.123 11.6274C89.2266 11.6661 89.301 11.7143 89.3452 11.7726C89.3894 11.8307 89.4122 11.8985 89.4122 11.9757V22.3382Z" fill="#1B1918"/>
<path fill-rule="evenodd" clip-rule="evenodd" d="M97.6346 21.3162C97.6346 21.6568 97.614 21.9178 97.5734 22.1002C97.5324 22.2819 97.4784 22.4103 97.4123 22.4837C97.3452 22.5572 97.2471 22.6231 97.1179 22.6808C96.9883 22.739 96.8359 22.7895 96.6621 22.8316C96.4878 22.8745 96.2988 22.9075 96.0957 22.9309C95.8917 22.9538 95.6859 22.9657 95.4788 22.9657C94.9234 22.9657 94.4419 22.8917 94.0344 22.7452C93.6269 22.5978 93.2901 22.3712 93.0236 22.0653C92.7572 21.7594 92.5604 21.3744 92.4349 20.9091C92.3085 20.4449 92.2461 19.8952 92.2461 19.2596V13.9508H91.0568C90.9158 13.9508 90.8085 13.8596 90.7347 13.6778C90.6607 13.4955 90.6233 13.1916 90.6233 12.7655C90.6233 12.5413 90.6329 12.3514 90.6511 12.1968C90.6699 12.0416 90.6973 11.92 90.7347 11.8308C90.772 11.7415 90.8181 11.6775 90.8739 11.639C90.9291 11.6003 90.9939 11.5812 91.0683 11.5812H92.2461V9.26886C92.2461 9.19162 92.2661 9.12236 92.3073 9.05988C92.3479 8.9978 92.4217 8.94586 92.529 8.90284C92.6362 8.86038 92.7808 8.8294 92.9624 8.81033C93.1437 8.79071 93.3682 8.78125 93.6347 8.78125C93.9086 8.78125 94.1362 8.79071 94.3178 8.81033C94.4995 8.8294 94.6419 8.86038 94.7454 8.90284C94.849 8.94586 94.9234 8.9978 94.9676 9.05988C95.012 9.12236 95.0347 9.19162 95.0347 9.26886V11.5812H97.1901C97.2639 11.5812 97.3287 11.6003 97.3845 11.639C97.4401 11.6775 97.4862 11.7415 97.5232 11.8308C97.5602 11.92 97.588 12.0416 97.6067 12.1968C97.625 12.3514 97.6346 12.5413 97.6346 12.7655C97.6346 13.1916 97.5972 13.4955 97.5232 13.6778C97.4488 13.8596 97.3416 13.9508 97.2009 13.9508H95.0347V18.8183C95.0347 19.3836 95.1196 19.8078 95.2898 20.0904C95.4605 20.3733 95.7639 20.514 96.2012 20.514C96.349 20.514 96.4822 20.5011 96.6009 20.474C96.7191 20.4468 96.8254 20.4158 96.9177 20.3809C97.0103 20.3456 97.0883 20.315 97.1513 20.2878C97.2138 20.2607 97.2713 20.2473 97.3233 20.2473C97.3676 20.2473 97.4105 20.2607 97.4506 20.2878C97.4917 20.315 97.5232 20.369 97.5456 20.4506C97.5674 20.5321 97.588 20.6424 97.6067 20.7817C97.625 20.9211 97.6346 21.0995 97.6346 21.3162Z" fill="#1B1918"/>
<path fill-rule="evenodd" clip-rule="evenodd" d="M106.123 17.1688C106.123 16.6572 106.084 16.1872 106.006 15.7568C105.928 15.3274 105.797 14.9538 105.612 14.6359C105.426 14.3186 105.18 14.071 104.872 13.8926C104.565 13.7146 104.178 13.6253 103.712 13.6253C103.297 13.6253 102.934 13.705 102.623 13.8635C102.312 14.0223 102.056 14.2546 101.856 14.5606C101.657 14.8664 101.506 15.2343 101.407 15.6642C101.307 16.0941 101.256 16.5842 101.256 17.1339C101.256 17.6449 101.297 18.1154 101.379 18.5453C101.46 18.9747 101.591 19.3488 101.773 19.6665C101.954 19.9839 102.2 20.2296 102.512 20.4038C102.823 20.5784 103.208 20.6653 103.668 20.6653C104.09 20.6653 104.456 20.586 104.767 20.4272C105.078 20.2683 105.334 20.0378 105.534 19.7358C105.733 19.4342 105.882 19.0683 105.978 18.6379C106.074 18.2085 106.123 17.7184 106.123 17.1688ZM109 17.0523C109 17.935 108.889 18.741 108.667 19.4691C108.445 20.1972 108.107 20.8242 107.656 21.3505C107.204 21.8777 106.637 22.2838 105.956 22.5705C105.275 22.8569 104.478 23 103.567 23C102.686 23 101.919 22.8727 101.267 22.6169C100.615 22.3611 100.074 21.9899 99.6454 21.5017C99.2161 21.0136 98.8971 20.4138 98.6895 19.7009C98.4823 18.9885 98.3787 18.1755 98.3787 17.2617C98.3787 16.3786 98.4918 15.5712 98.7173 14.8392C98.9437 14.1072 99.2822 13.4803 99.7341 12.9572C100.186 12.4348 100.751 12.0302 101.428 11.7435C102.107 11.4571 102.901 11.3135 103.812 11.3135C104.701 11.3135 105.471 11.4394 106.123 11.6914C106.774 11.9428 107.313 12.3126 107.739 12.8008C108.165 13.2885 108.482 13.8888 108.689 14.6016C108.896 15.3136 109 16.1309 109 17.0523Z" fill="#1B1918"/>
<path fill-rule="evenodd" clip-rule="evenodd" d="M22.3 22.349C22.3 22.5631 22.1298 22.7366 21.9198 22.7366H0.380171C0.170226 22.7366 0 22.5631 0 22.349V0.387488C0 0.173575 0.170226 0 0.380171 0H21.9198C22.1298 0 22.3 0.173575 22.3 0.387488V22.349Z" fill="#AF1026"/>
<path fill-rule="evenodd" clip-rule="evenodd" d="M18.3294 11.8392C18.6206 11.4498 19.1385 11.2827 19.6568 11.2827C19.8841 11.2827 20.1114 11.3199 20.3204 11.3944L19.8751 12.4232C19.2111 12.1263 18.5384 12.5344 18.4202 13.174V15.38H17.2839V11.3851H18.1655L18.3294 11.8392Z" fill="white"/>
<path fill-rule="evenodd" clip-rule="evenodd" d="M15.9051 16.7935V17.8584H14.5954V20.8031H13.4619V17.8584H12.2188V16.7935H13.4619H14.5954H15.9051Z" fill="white"/>
<path fill-rule="evenodd" clip-rule="evenodd" d="M4.34623 19.5866C4.15039 19.7955 3.88986 19.9095 3.61007 19.9095C3.33079 19.9095 3.06987 19.7955 2.86497 19.5866C2.66964 19.3679 2.55736 19.0925 2.55736 18.7984C2.55736 18.5039 2.66964 18.2187 2.86497 18.0098C3.06987 17.8009 3.33079 17.6868 3.61007 17.6868C3.88986 17.6868 4.15039 17.8009 4.34623 18.0098C4.55113 18.2187 4.65372 18.5039 4.65372 18.7984C4.65372 19.0925 4.55113 19.3679 4.34623 19.5866ZM4.90337 16.8014L4.81257 17.1825C4.44791 16.8666 3.97471 16.6809 3.46454 16.6809C2.30769 16.6809 1.37866 17.6189 1.37866 18.7984C1.37866 19.9681 2.30769 20.9155 3.46454 20.9155C3.97471 20.9155 4.44791 20.7298 4.81257 20.4139V20.8043H5.77768V16.8014H4.90337Z" fill="white"/>
<path fill-rule="evenodd" clip-rule="evenodd" d="M4.34623 14.1742C4.15039 14.3831 3.88986 14.4972 3.61007 14.4972C3.33079 14.4972 3.06987 14.3831 2.86497 14.1742C2.66964 13.9555 2.55736 13.6801 2.55736 13.386C2.55736 13.0915 2.66964 12.8064 2.86497 12.5975C3.06987 12.3886 3.33079 12.2746 3.61007 12.2746C3.88986 12.2746 4.15039 12.3886 4.34623 12.5975C4.55113 12.8064 4.65372 13.0915 4.65372 13.386C4.65372 13.6801 4.55113 13.9555 4.34623 14.1742ZM4.90337 11.3891L4.81257 11.7701C4.44791 11.4543 3.97471 11.2686 3.46454 11.2686C2.30769 11.2686 1.37866 12.2066 1.37866 13.386C1.37866 14.5558 2.30769 15.5031 3.46454 15.5031C3.97471 15.5031 4.44791 15.3174 4.81257 15.0015V15.3919H5.77768V11.3891H4.90337Z" fill="white"/>
<path fill-rule="evenodd" clip-rule="evenodd" d="M19.5428 19.5867C19.3469 19.7956 19.0864 19.9095 18.8066 19.9095C18.5273 19.9095 18.2663 19.7956 18.0614 19.5867C17.8662 19.368 17.7539 19.0925 17.7539 18.7985C17.7539 18.504 17.8662 18.2187 18.0614 18.0098C18.2663 17.8009 18.5273 17.6869 18.8066 17.6869C19.0864 17.6869 19.3469 17.8009 19.5428 18.0098C19.7477 18.2187 19.8502 18.504 19.8502 18.7985C19.8502 19.0925 19.7477 19.368 19.5428 19.5867ZM18.7975 16.6763C17.5927 16.6763 16.6249 17.6255 16.6249 18.7985C16.6249 19.9802 17.5927 20.9201 18.7975 20.9201C20.0118 20.9201 20.9793 19.9802 20.9793 18.7985C20.9793 17.6255 20.0118 16.6763 18.7975 16.6763Z" fill="white"/>
<path fill-rule="evenodd" clip-rule="evenodd" d="M9.69751 0H10.8401V15.261H9.69751V0Z" fill="white"/>
<path fill-rule="evenodd" clip-rule="evenodd" d="M7.15649 0H8.31514V15.261H7.15649V0Z" fill="white"/>
<path fill-rule="evenodd" clip-rule="evenodd" d="M9.70028 16.5166V18.9864V19.0738C9.70028 19.4642 9.38995 19.781 9.00667 19.781C9.00434 19.781 9.00215 19.78 8.99981 19.78L8.99296 19.781C8.60968 19.781 8.31073 19.4758 8.31073 19.0854C8.31073 19.0622 8.31526 16.5166 8.31526 16.5166H7.15662V19.0114C7.15662 20.0672 8.04555 20.9154 8.99981 20.9154C9.95407 20.9154 10.843 20.0672 10.843 19.0114V16.5166H9.70028Z" fill="white"/>
<path fill-rule="evenodd" clip-rule="evenodd" d="M14.7624 11.3887V13.5768V13.6644C14.7624 14.0547 14.4522 14.3716 14.0688 14.3716C14.0666 14.3716 14.0643 14.3706 14.0643 14.3706C14.0597 14.3706 14.0574 14.3716 14.0551 14.3716C13.6718 14.3716 13.3729 14.0664 13.3729 13.676C13.3729 13.6527 13.377 11.3887 13.377 11.3887H12.2189V13.602C12.2189 14.6577 13.1078 15.506 14.0619 15.506C15.0162 15.506 15.9051 14.6577 15.9051 13.602V11.3887H14.7624Z" fill="white"/>
<path fill-rule="evenodd" clip-rule="evenodd" d="M30.4376 10.5704H30.4262L28.3933 16.9595H32.4706L30.4376 10.5704ZM37.0367 21.5952C37.1263 21.8738 37.1815 22.0947 37.2039 22.257C37.2257 22.4197 37.1961 22.5418 37.1153 22.6229C37.0331 22.7046 36.8889 22.7546 36.6818 22.7742C36.4742 22.7933 36.1889 22.8033 35.8261 22.8033C35.4488 22.8033 35.154 22.7976 34.9431 22.7856C34.7319 22.7742 34.5707 22.7508 34.4598 22.7159C34.3485 22.6811 34.271 22.633 34.2262 22.5709C34.182 22.5088 34.1445 22.4273 34.1153 22.3271L33.1488 19.3062H27.7489L26.838 22.245C26.8084 22.3542 26.7696 22.4445 26.7212 22.5184C26.6728 22.5919 26.5952 22.6502 26.488 22.6925C26.3804 22.7355 26.2284 22.7642 26.0326 22.7795C25.8364 22.7952 25.5785 22.8033 25.26 22.8033C24.9195 22.8033 24.6527 22.7914 24.4601 22.7684C24.2675 22.7451 24.1342 22.6893 24.0604 22.6C23.9864 22.5107 23.9604 22.3848 23.9822 22.2221C24.0046 22.0594 24.0604 21.8428 24.1492 21.5718L28.5821 8.23515C28.6269 8.10355 28.6785 7.99711 28.7377 7.91555C28.7971 7.8344 28.8916 7.77286 29.0212 7.72983C29.1508 7.68737 29.3301 7.66018 29.5601 7.64828C29.7897 7.63692 30.0931 7.6311 30.471 7.6311C30.9077 7.6311 31.2559 7.63692 31.5156 7.64828C31.7748 7.66018 31.9765 7.68737 32.1207 7.72983C32.2653 7.77286 32.3689 7.83628 32.4323 7.92122C32.4948 8.00671 32.5487 8.12302 32.593 8.27005L37.0367 21.5952Z" fill="#1B1918"/>
<path fill-rule="evenodd" clip-rule="evenodd" d="M40.6529 22.3541C40.6529 22.4271 40.6336 22.4911 40.5953 22.5465C40.5565 22.6014 40.4913 22.6471 40.3987 22.6839C40.3056 22.7206 40.1828 22.7478 40.029 22.766C39.8757 22.7841 39.6804 22.7936 39.4441 22.7936C39.2076 22.7936 39.0128 22.7841 38.859 22.766C38.7052 22.7478 38.582 22.7206 38.4898 22.6839C38.3967 22.6471 38.3315 22.6014 38.2927 22.5465C38.2548 22.4911 38.2351 22.4271 38.2351 22.3541V7.90108C38.2351 7.82763 38.2548 7.76176 38.2927 7.70307C38.3315 7.64477 38.3967 7.59526 38.4898 7.55468C38.582 7.51451 38.7052 7.48354 38.859 7.46108C39.0128 7.43918 39.2076 7.42822 39.4441 7.42822C39.6804 7.42822 39.8757 7.43918 40.029 7.46108C40.1828 7.48354 40.3056 7.51451 40.3987 7.55468C40.4913 7.59526 40.5565 7.64477 40.5953 7.70307C40.6336 7.76176 40.6529 7.82763 40.6529 7.90108V22.3541Z" fill="#1B1918"/>
<path fill-rule="evenodd" clip-rule="evenodd" d="M45.0853 22.3541C45.0853 22.4271 45.0661 22.4911 45.0278 22.5465C44.989 22.6014 44.9237 22.6471 44.8311 22.6839C44.7381 22.7206 44.6153 22.7478 44.4615 22.766C44.3081 22.7841 44.1129 22.7936 43.8764 22.7936C43.6401 22.7936 43.4452 22.7841 43.2915 22.766C43.1381 22.7478 43.0144 22.7206 42.9223 22.6839C42.8292 22.6471 42.7638 22.6014 42.7252 22.5465C42.6873 22.4911 42.6676 22.4271 42.6676 22.3541V7.90108C42.6676 7.82763 42.6873 7.76176 42.7252 7.70307C42.7638 7.64477 42.8292 7.59526 42.9223 7.55468C43.0144 7.51451 43.1381 7.48354 43.2915 7.46108C43.4452 7.43918 43.6401 7.42822 43.8764 7.42822C44.1129 7.42822 44.3081 7.43918 44.4615 7.46108C44.6153 7.48354 44.7381 7.51451 44.8311 7.55468C44.9237 7.59526 44.989 7.64477 45.0278 7.70307C45.0661 7.76176 45.0853 7.82763 45.0853 7.90108V22.3541Z" fill="#1B1918"/>
<path fill-rule="evenodd" clip-rule="evenodd" d="M56.6912 22.3382C56.6912 22.4155 56.6725 22.4837 56.6355 22.5415C56.5986 22.5996 56.5333 22.6479 56.4412 22.687C56.3485 22.7257 56.2262 22.7542 56.0747 22.7742C55.9222 22.7934 55.7316 22.8029 55.5025 22.8029C55.2579 22.8029 55.0593 22.7934 54.9078 22.7742C54.7558 22.7542 54.6354 22.7257 54.5469 22.687C54.4579 22.6479 54.3949 22.5996 54.3579 22.5415C54.3209 22.4837 54.3023 22.4155 54.3023 22.3382V21.142C53.7542 21.7613 53.1966 22.226 52.6302 22.5358C52.0635 22.8454 51.4766 23 50.8692 23C50.1875 23 49.6157 22.8845 49.1525 22.6521C48.6893 22.4193 48.3156 22.1024 48.0303 21.6992C47.7456 21.297 47.5416 20.8299 47.4192 20.2993C47.297 19.7692 47.2363 19.1088 47.2363 18.3186V11.9757C47.2363 11.8985 47.2564 11.8307 47.297 11.7726C47.338 11.7143 47.412 11.6661 47.5192 11.6274C47.627 11.5884 47.7716 11.5593 47.9527 11.5401C48.1339 11.521 48.3585 11.511 48.625 11.511C48.8987 11.511 49.1247 11.521 49.3031 11.5401C49.4805 11.5593 49.6224 11.5884 49.7307 11.6274C49.8374 11.6661 49.9136 11.7143 49.9579 11.7726C50.0022 11.8307 50.025 11.8985 50.025 11.9757V17.8305C50.025 18.373 50.0579 18.7871 50.125 19.074C50.1911 19.3608 50.2929 19.6065 50.4303 19.8112C50.5671 20.0168 50.7415 20.1757 50.9527 20.2878C51.1636 20.3999 51.41 20.4563 51.6911 20.4563C52.0471 20.4563 52.4039 20.3208 52.7635 20.0498C53.1227 19.7787 53.506 19.3836 53.9135 18.8645V11.9757C53.9135 11.8985 53.9335 11.8307 53.9746 11.7726C54.0153 11.7143 54.0896 11.6661 54.1969 11.6274C54.3036 11.5884 54.4465 11.5593 54.6244 11.5401C54.8024 11.521 55.0284 11.511 55.3021 11.511C55.5763 11.511 55.8023 11.521 55.9798 11.5401C56.1573 11.5593 56.2983 11.5884 56.4019 11.6274C56.5055 11.6661 56.5799 11.7143 56.6241 11.7726C56.6684 11.8307 56.6912 11.8985 56.6912 11.9757V22.3382Z" fill="#1B1918"/>
<path fill-rule="evenodd" clip-rule="evenodd" d="M22.3 22.349C22.3 22.5631 22.1298 22.7366 21.9198 22.7366H0.380171C0.170226 22.7366 0 22.5631 0 22.349V0.387488C0 0.173575 0.170226 0 0.380171 0H21.9198C22.1298 0 22.3 0.173575 22.3 0.387488V22.349Z" fill="#AF1026"/>
<path fill-rule="evenodd" clip-rule="evenodd" d="M18.3294 11.8392C18.6206 11.4498 19.1385 11.2827 19.6568 11.2827C19.8841 11.2827 20.1114 11.3199 20.3204 11.3944L19.8751 12.4232C19.2111 12.1263 18.5384 12.5344 18.4202 13.174V15.38H17.2839V11.3851H18.1655L18.3294 11.8392Z" fill="white"/>
<path fill-rule="evenodd" clip-rule="evenodd" d="M15.9051 16.7935V17.8584H14.5954V20.8031H13.4619V17.8584H12.2188V16.7935H13.4619H14.5954H15.9051Z" fill="white"/>
<path fill-rule="evenodd" clip-rule="evenodd" d="M4.34623 19.5866C4.15039 19.7955 3.88986 19.9095 3.61007 19.9095C3.33079 19.9095 3.06987 19.7955 2.86497 19.5866C2.66964 19.3679 2.55736 19.0925 2.55736 18.7984C2.55736 18.5039 2.66964 18.2187 2.86497 18.0098C3.06987 17.8009 3.33079 17.6868 3.61007 17.6868C3.88986 17.6868 4.15039 17.8009 4.34623 18.0098C4.55113 18.2187 4.65372 18.5039 4.65372 18.7984C4.65372 19.0925 4.55113 19.3679 4.34623 19.5866ZM4.90337 16.8014L4.81257 17.1825C4.44791 16.8666 3.97471 16.6809 3.46454 16.6809C2.30769 16.6809 1.37866 17.6189 1.37866 18.7984C1.37866 19.9681 2.30769 20.9155 3.46454 20.9155C3.97471 20.9155 4.44791 20.7298 4.81257 20.4139V20.8043H5.77768V16.8014H4.90337Z" fill="white"/>
<path fill-rule="evenodd" clip-rule="evenodd" d="M4.34623 14.1742C4.15039 14.3831 3.88986 14.4972 3.61007 14.4972C3.33079 14.4972 3.06987 14.3831 2.86497 14.1742C2.66964 13.9555 2.55736 13.6801 2.55736 13.386C2.55736 13.0915 2.66964 12.8064 2.86497 12.5975C3.06987 12.3886 3.33079 12.2746 3.61007 12.2746C3.88986 12.2746 4.15039 12.3886 4.34623 12.5975C4.55113 12.8064 4.65372 13.0915 4.65372 13.386C4.65372 13.6801 4.55113 13.9555 4.34623 14.1742ZM4.90337 11.3891L4.81257 11.7701C4.44791 11.4543 3.97471 11.2686 3.46454 11.2686C2.30769 11.2686 1.37866 12.2066 1.37866 13.386C1.37866 14.5558 2.30769 15.5031 3.46454 15.5031C3.97471 15.5031 4.44791 15.3174 4.81257 15.0015V15.3919H5.77768V11.3891H4.90337Z" fill="white"/>
<path fill-rule="evenodd" clip-rule="evenodd" d="M19.5428 19.5867C19.3469 19.7956 19.0864 19.9095 18.8066 19.9095C18.5273 19.9095 18.2663 19.7956 18.0614 19.5867C17.8662 19.368 17.7539 19.0925 17.7539 18.7985C17.7539 18.504 17.8662 18.2187 18.0614 18.0098C18.2663 17.8009 18.5273 17.6869 18.8066 17.6869C19.0864 17.6869 19.3469 17.8009 19.5428 18.0098C19.7477 18.2187 19.8502 18.504 19.8502 18.7985C19.8502 19.0925 19.7477 19.368 19.5428 19.5867ZM18.7975 16.6763C17.5927 16.6763 16.6249 17.6255 16.6249 18.7985C16.6249 19.9802 17.5927 20.9201 18.7975 20.9201C20.0118 20.9201 20.9793 19.9802 20.9793 18.7985C20.9793 17.6255 20.0118 16.6763 18.7975 16.6763Z" fill="white"/>
<path fill-rule="evenodd" clip-rule="evenodd" d="M9.69751 0H10.8401V15.261H9.69751V0Z" fill="white"/>
<path fill-rule="evenodd" clip-rule="evenodd" d="M7.15649 0H8.31514V15.261H7.15649V0Z" fill="white"/>
<path fill-rule="evenodd" clip-rule="evenodd" d="M9.70028 16.5166V18.9864V19.0738C9.70028 19.4642 9.38995 19.781 9.00667 19.781C9.00434 19.781 9.00215 19.78 8.99981 19.78L8.99296 19.781C8.60968 19.781 8.31073 19.4758 8.31073 19.0854C8.31073 19.0622 8.31526 16.5166 8.31526 16.5166H7.15662V19.0114C7.15662 20.0672 8.04555 20.9154 8.99981 20.9154C9.95407 20.9154 10.843 20.0672 10.843 19.0114V16.5166H9.70028Z" fill="white"/>
<path fill-rule="evenodd" clip-rule="evenodd" d="M14.7624 11.3887V13.5768V13.6644C14.7624 14.0547 14.4522 14.3716 14.0688 14.3716C14.0666 14.3716 14.0643 14.3706 14.0643 14.3706C14.0597 14.3706 14.0574 14.3716 14.0551 14.3716C13.6718 14.3716 13.3729 14.0664 13.3729 13.676C13.3729 13.6527 13.377 11.3887 13.377 11.3887H12.2189V13.602C12.2189 14.6577 13.1078 15.506 14.0619 15.506C15.0162 15.506 15.9051 14.6577 15.9051 13.602V11.3887H14.7624Z" fill="white"/>
<path fill-rule="evenodd" clip-rule="evenodd" d="M30.4376 10.5704H30.4262L28.3933 16.9595H32.4706L30.4376 10.5704ZM37.0367 21.5952C37.1263 21.8738 37.1815 22.0947 37.2039 22.257C37.2257 22.4197 37.1961 22.5418 37.1153 22.6229C37.0331 22.7046 36.8889 22.7546 36.6818 22.7742C36.4742 22.7933 36.1889 22.8033 35.8261 22.8033C35.4488 22.8033 35.154 22.7976 34.9431 22.7856C34.7319 22.7742 34.5707 22.7508 34.4598 22.7159C34.3485 22.6811 34.271 22.633 34.2262 22.5709C34.182 22.5088 34.1445 22.4273 34.1153 22.3271L33.1488 19.3062H27.7489L26.838 22.245C26.8084 22.3542 26.7696 22.4445 26.7212 22.5184C26.6728 22.5919 26.5952 22.6502 26.488 22.6925C26.3804 22.7355 26.2284 22.7642 26.0326 22.7795C25.8364 22.7952 25.5785 22.8033 25.26 22.8033C24.9195 22.8033 24.6527 22.7914 24.4601 22.7684C24.2675 22.7451 24.1342 22.6893 24.0604 22.6C23.9864 22.5107 23.9604 22.3848 23.9822 22.2221C24.0046 22.0594 24.0604 21.8428 24.1492 21.5718L28.5821 8.23515C28.6269 8.10355 28.6785 7.99711 28.7377 7.91555C28.7971 7.8344 28.8916 7.77286 29.0212 7.72983C29.1508 7.68737 29.3301 7.66018 29.5601 7.64828C29.7897 7.63692 30.0931 7.6311 30.471 7.6311C30.9077 7.6311 31.2559 7.63692 31.5156 7.64828C31.7748 7.66018 31.9765 7.68737 32.1207 7.72983C32.2653 7.77286 32.3689 7.83628 32.4323 7.92122C32.4948 8.00671 32.5487 8.12302 32.593 8.27005L37.0367 21.5952Z" fill="#1B1918"/>
<path fill-rule="evenodd" clip-rule="evenodd" d="M40.6529 22.3541C40.6529 22.4271 40.6336 22.4911 40.5953 22.5465C40.5565 22.6014 40.4913 22.6471 40.3987 22.6839C40.3056 22.7206 40.1828 22.7478 40.029 22.766C39.8757 22.7841 39.6804 22.7936 39.4441 22.7936C39.2076 22.7936 39.0128 22.7841 38.859 22.766C38.7052 22.7478 38.582 22.7206 38.4898 22.6839C38.3967 22.6471 38.3315 22.6014 38.2927 22.5465C38.2548 22.4911 38.2351 22.4271 38.2351 22.3541V7.90108C38.2351 7.82763 38.2548 7.76176 38.2927 7.70307C38.3315 7.64477 38.3967 7.59526 38.4898 7.55468C38.582 7.51451 38.7052 7.48354 38.859 7.46108C39.0128 7.43918 39.2076 7.42822 39.4441 7.42822C39.6804 7.42822 39.8757 7.43918 40.029 7.46108C40.1828 7.48354 40.3056 7.51451 40.3987 7.55468C40.4913 7.59526 40.5565 7.64477 40.5953 7.70307C40.6336 7.76176 40.6529 7.82763 40.6529 7.90108V22.3541Z" fill="#1B1918"/>
<path fill-rule="evenodd" clip-rule="evenodd" d="M45.0853 22.3541C45.0853 22.4271 45.0661 22.4911 45.0278 22.5465C44.989 22.6014 44.9237 22.6471 44.8311 22.6839C44.7381 22.7206 44.6153 22.7478 44.4615 22.766C44.3081 22.7841 44.1129 22.7936 43.8764 22.7936C43.6401 22.7936 43.4452 22.7841 43.2915 22.766C43.1381 22.7478 43.0144 22.7206 42.9223 22.6839C42.8292 22.6471 42.7638 22.6014 42.7252 22.5465C42.6873 22.4911 42.6676 22.4271 42.6676 22.3541V7.90108C42.6676 7.82763 42.6873 7.76176 42.7252 7.70307C42.7638 7.64477 42.8292 7.59526 42.9223 7.55468C43.0144 7.51451 43.1381 7.48354 43.2915 7.46108C43.4452 7.43918 43.6401 7.42822 43.8764 7.42822C44.1129 7.42822 44.3081 7.43918 44.4615 7.46108C44.6153 7.48354 44.7381 7.51451 44.8311 7.55468C44.9237 7.59526 44.989 7.64477 45.0278 7.70307C45.0661 7.76176 45.0853 7.82763 45.0853 7.90108V22.3541Z" fill="#1B1918"/>
<path fill-rule="evenodd" clip-rule="evenodd" d="M56.6912 22.3382C56.6912 22.4155 56.6725 22.4837 56.6355 22.5415C56.5986 22.5996 56.5333 22.6479 56.4412 22.687C56.3485 22.7257 56.2262 22.7542 56.0747 22.7742C55.9222 22.7934 55.7316 22.8029 55.5025 22.8029C55.2579 22.8029 55.0593 22.7934 54.9078 22.7742C54.7558 22.7542 54.6354 22.7257 54.5469 22.687C54.4579 22.6479 54.3949 22.5996 54.3579 22.5415C54.3209 22.4837 54.3023 22.4155 54.3023 22.3382V21.142C53.7542 21.7613 53.1966 22.226 52.6302 22.5358C52.0635 22.8454 51.4766 23 50.8692 23C50.1875 23 49.6157 22.8845 49.1525 22.6521C48.6893 22.4193 48.3156 22.1024 48.0303 21.6992C47.7456 21.297 47.5416 20.8299 47.4192 20.2993C47.297 19.7692 47.2363 19.1088 47.2363 18.3186V11.9757C47.2363 11.8985 47.2564 11.8307 47.297 11.7726C47.338 11.7143 47.412 11.6661 47.5192 11.6274C47.627 11.5884 47.7716 11.5593 47.9527 11.5401C48.1339 11.521 48.3585 11.511 48.625 11.511C48.8987 11.511 49.1247 11.521 49.3031 11.5401C49.4805 11.5593 49.6224 11.5884 49.7307 11.6274C49.8374 11.6661 49.9136 11.7143 49.9579 11.7726C50.0022 11.8307 50.025 11.8985 50.025 11.9757V17.8305C50.025 18.373 50.0579 18.7871 50.125 19.074C50.1911 19.3608 50.2929 19.6065 50.4303 19.8112C50.5671 20.0168 50.7415 20.1757 50.9527 20.2878C51.1636 20.3999 51.41 20.4563 51.6911 20.4563C52.0471 20.4563 52.4039 20.3208 52.7635 20.0498C53.1227 19.7787 53.506 19.3836 53.9135 18.8645V11.9757C53.9135 11.8985 53.9335 11.8307 53.9746 11.7726C54.0153 11.7143 54.0896 11.6661 54.1969 11.6274C54.3036 11.5884 54.4465 11.5593 54.6244 11.5401C54.8024 11.521 55.0284 11.511 55.3021 11.511C55.5763 11.511 55.8023 11.521 55.9798 11.5401C56.1573 11.5593 56.2983 11.5884 56.4019 11.6274C56.5055 11.6661 56.5799 11.7143 56.6241 11.7726C56.6684 11.8307 56.6912 11.8985 56.6912 11.9757V22.3382Z" fill="#1B1918"/>
</g>
<defs>
<clipPath id="clip0">
<rect width="109" height="23" fill="white"/>
</clipPath>
</defs>
</svg>
