<svg width="54" height="54" viewBox="0 0 54 54" fill="none" xmlns="http://www.w3.org/2000/svg">
<g clip-path="url(#clip0)">
<path d="M54 0.0173272V54H0V0H17.8261V40.3536H21.2486V0.0502524C21.3196 0.0502524 21.3733 0.0398555 21.4219 0.0398555C22.0457 0.0398555 22.6713 0.0398555 23.2951 0.0398555C23.4372 0.0398555 23.4805 0.0745131 23.4788 0.213143C23.4788 1.94602 23.4788 3.65984 23.4788 5.38406V40.338H26.8839V0.0173272H54ZM17.8279 41.3309V41.5319C17.8452 43.5438 17.8019 45.5574 17.8833 47.571C17.9104 48.3483 18.1873 49.0962 18.6731 49.7036C19.1588 50.3111 19.8274 50.7458 20.5797 50.9432C21.3905 51.1169 22.2219 51.1753 23.049 51.1165C23.6227 51.1105 24.1902 50.9982 24.723 50.7855C25.9481 50.2552 26.7193 49.3628 26.8146 47.999C26.8856 46.9732 26.8995 45.9404 26.9151 44.911C26.9307 43.776 26.9151 42.641 26.9151 41.5059V41.3326H23.4493V41.5267C23.4493 43.3029 23.4493 45.0774 23.4493 46.8536C23.446 47.0139 23.4161 47.1726 23.361 47.3232C23.3112 47.5008 23.2071 47.6583 23.0631 47.7737C22.9192 47.889 22.7428 47.9563 22.5586 47.9661C22.1358 47.9956 21.7615 47.8933 21.5189 47.5034C21.3604 47.2385 21.2816 46.9335 21.2919 46.6249C21.2919 44.9232 21.2919 43.2209 21.2919 41.5181V41.3292L17.8279 41.3309ZM12.3329 32.1917C12.0955 32.0046 11.8824 31.8451 11.6796 31.6718C11.2156 31.2633 10.6295 31.0196 10.0126 30.9787C8.43913 30.8626 7.14293 31.3634 6.29382 32.8519C5.56428 34.1412 5.47937 35.4911 5.82594 36.8878C6.24703 38.5774 7.41499 39.6604 9.13401 39.8892C9.67942 39.9789 10.2387 39.93 10.7602 39.7467C11.2816 39.5635 11.7486 39.252 12.118 38.8408C12.1882 38.7783 12.2623 38.7204 12.3398 38.6675L12.3988 39.4715H15.5179V31.3617H12.3988C12.371 31.6337 12.352 31.8971 12.3329 32.1917ZM12.371 43.0551L12.3312 43.069C12.1925 42.9356 12.047 42.8108 11.917 42.6687C11.678 42.4063 11.3814 42.2028 11.0506 42.0743C10.1991 41.7579 9.26682 41.7323 8.39927 42.0015C7.79449 42.1748 7.22611 42.4209 6.82755 42.9304C5.70464 44.3617 5.39792 45.9785 5.82247 47.7287C6.15519 49.1029 6.96098 50.0958 8.33342 50.5377C9.70586 50.9796 10.983 50.7942 12.0539 49.7371C12.1444 49.6579 12.2393 49.5839 12.3381 49.5153C12.3589 49.8064 12.3762 50.0594 12.3936 50.3107H15.5023V42.18H12.371V43.0551ZM43.5819 50.6798C43.9285 50.6555 44.2751 50.6469 44.6217 50.6036C45.8347 50.4563 46.8224 49.9295 47.5346 48.9313C48.2087 47.9852 48.4167 46.9177 48.3214 45.7758C48.2653 44.8283 47.8797 43.9302 47.2312 43.2371C46.5828 42.5441 45.7123 42.0996 44.7707 41.9808C43.9296 41.863 43.0778 41.8421 42.232 41.9184C40.7071 42.0431 39.553 42.7623 38.8096 44.1018C38.2447 45.119 38.1857 46.2211 38.4214 47.3319C38.7593 48.9227 39.702 49.9884 41.2876 50.432C42.0374 50.6192 42.8095 50.7015 43.5819 50.6763V50.6798ZM37.6329 31.301H34.4306V31.4899C34.4306 32.3858 34.4393 33.28 34.4306 34.1759C34.4306 34.7893 34.4306 35.4062 34.3769 36.0162C34.3076 36.8289 33.831 37.2136 33.0703 37.1373C32.807 37.1265 32.5561 37.023 32.3617 36.8451C32.1674 36.6673 32.0421 36.4264 32.008 36.1652C31.9823 36.0164 31.9695 35.8657 31.9699 35.7147C31.9699 34.4393 31.9699 33.1639 31.9578 31.8885C31.9578 31.6926 31.9422 31.4968 31.9335 31.301H28.8369C28.8327 31.3234 28.8298 31.3459 28.8282 31.3686C28.8282 33.0183 28.8282 34.6611 28.8282 36.3177C28.8231 36.5883 28.8486 36.8586 28.9044 37.1235C29.2267 38.4543 30.0967 39.2809 31.3807 39.6604C32.4609 39.9535 33.5952 39.9862 34.6905 39.7557C36.2501 39.4715 37.5463 38.3192 37.5671 36.4373C37.5827 35.122 37.6087 33.805 37.626 32.488C37.6382 32.0981 37.6329 31.7082 37.6329 31.301ZM37.4267 44.6338V42.2078H28.5475V44.6771H31.1658V50.3471H34.8049V44.6338H37.4267ZM39.6795 31.2369V39.5668H42.991V39.3936C42.991 38.5496 42.991 37.7057 42.991 36.8636C42.991 36.4511 42.991 36.0404 43.0135 35.6297C43.0275 35.3974 43.088 35.1703 43.1916 34.9619C43.2952 34.7535 43.4398 34.5681 43.6166 34.4167C44.0758 34.0182 44.6217 33.9211 45.2074 33.9679L45.9594 34.0286C45.9594 33.9818 45.9733 33.9471 45.9768 33.9125C46.0172 33.5254 46.0559 33.1379 46.0929 32.7497C46.1379 32.3199 46.1795 31.8833 46.228 31.4622C46.2402 31.353 46.2159 31.2975 46.0998 31.2889C45.9837 31.2802 45.8433 31.2438 45.7168 31.2196C44.8504 31.0636 44.0949 31.2525 43.4953 31.93C43.3376 32.1033 43.173 32.2766 43.0135 32.4638C42.9806 32.5002 42.9564 32.5452 42.9269 32.5851L42.8801 32.5573V31.2438L39.6795 31.2369Z" fill="#AF1026"/>
<path d="M12.4386 35.4877C12.4126 36.5153 11.6848 37.1946 10.6451 37.1616C9.65907 37.1322 8.98498 36.3697 9.01618 35.3161C9.04217 34.3942 9.79944 33.7374 10.808 33.7565C11.0306 33.7568 11.2509 33.8026 11.4552 33.891C11.6595 33.9795 11.8437 34.1087 11.9963 34.2707C12.149 34.4328 12.2669 34.6243 12.343 34.8336C12.419 35.0428 12.4516 35.2654 12.4386 35.4877Z" fill="#AF1026"/>
<path d="M12.4386 46.28C12.4501 46.5091 12.4137 46.7382 12.3318 46.9524C12.2499 47.1667 12.1242 47.3616 11.9628 47.5246C11.8014 47.6877 11.6078 47.8153 11.3943 47.8994C11.1809 47.9834 10.9523 48.0221 10.723 48.0129C9.73182 48.0129 9.0196 47.2868 9.0144 46.2575C9.0144 45.3061 9.72489 44.6061 10.7074 44.6009C11.7177 44.5887 12.4368 45.2871 12.4386 46.28Z" fill="#AF1026"/>
<path d="M41.7381 46.3095C41.771 46.1154 41.7866 45.9161 41.8369 45.7272C42.05 44.937 42.7432 44.5142 43.5698 44.6494C43.8997 44.6843 44.2062 44.8364 44.4336 45.0781C44.6609 45.3197 44.794 45.6349 44.8088 45.9664C44.8406 46.2187 44.836 46.4744 44.7949 46.7254C44.6476 47.493 43.9961 47.9471 43.1851 47.8777C42.7875 47.8554 42.4142 47.6792 42.1441 47.3865C41.8741 47.0938 41.7285 46.7076 41.7381 46.3095Z" fill="#AF1026"/>
</g>
<defs>
<clipPath id="clip0">
<rect width="54" height="54" fill="white"/>
</clipPath>
</defs>
</svg>
