<svg width="35" height="35" viewBox="0 0 35 35" fill="none" xmlns="http://www.w3.org/2000/svg">
<path d="M17.4999 0C14.0388 0 10.6553 1.02636 7.77747 2.94928C4.89961 4.87221 2.65659 7.60533 1.33205 10.803C0.00752103 14.0007 -0.339037 17.5194 0.336205 20.9141C1.01145 24.3087 2.67816 27.4269 5.12558 29.8744C7.573 32.3218 10.6912 33.9885 14.0859 34.6637C17.4805 35.339 20.9992 34.9924 24.1969 33.6679C27.3946 32.3434 30.1277 30.1003 32.0507 27.2225C33.9736 24.3446 34.9999 20.9612 34.9999 17.5C34.9999 12.8587 33.1562 8.40752 29.8743 5.12563C26.5924 1.84374 22.1412 0 17.4999 0ZM27.3746 24.5768L26.3235 26.3268C26.0434 26.7991 25.5924 27.1456 25.0639 27.2945C23.3183 27.774 19.4683 27.8705 13.2978 21.6989C7.12722 15.5273 7.22377 11.6784 7.70214 9.93276C7.85261 9.40431 8.20071 8.95406 8.67424 8.67539L10.4242 7.62539C10.6169 7.51128 10.8458 7.47509 11.0643 7.52425C11.2827 7.5734 11.4741 7.70418 11.5993 7.88981L13.1222 10.1697L14.3949 12.0799C14.5148 12.2641 14.5613 12.4865 14.5251 12.7033C14.489 12.9201 14.3728 13.1154 14.1996 13.2506L12.6329 14.4696C12.4684 14.5963 12.3548 14.7777 12.3125 14.981C12.2702 15.1843 12.3021 15.396 12.4025 15.5777C12.8633 16.405 13.2988 17.3804 15.457 19.5418C17.6152 21.7033 18.5938 22.1356 19.4211 22.5953C19.6027 22.6962 19.8144 22.7285 20.0178 22.6864C20.2211 22.6444 20.4027 22.5306 20.5293 22.366L21.7482 20.7992C21.8841 20.6264 22.08 20.5109 22.2969 20.4756C22.5139 20.4402 22.7363 20.4876 22.92 20.6083L24.8949 21.9249L27.1112 23.4028C27.2956 23.5286 27.425 23.7199 27.4733 23.9378C27.5216 24.1557 27.4851 24.3838 27.3713 24.5757L27.3746 24.5768Z" fill="#AF1026"/>
</svg>
