<svg width="20" height="20" viewBox="0 0 20 20" fill="none" xmlns="http://www.w3.org/2000/svg">
<path d="M10.0007 0C4.47809 0 0.000976562 4.47724 0.000976562 9.9999C0.000976562 15.5224 4.47809 20 10.0007 20C15.5234 20 20.0008 15.5224 20.0008 9.9999C20.0008 4.47724 15.5234 0 10.0007 0ZM10.0009 3.51244L15.9185 7.20247H4.08335L10.0009 3.51244ZM15.9923 13.095H15.9917C15.9917 13.6869 15.512 14.1665 14.9202 14.1665H5.08169C4.48982 14.1665 4.01022 13.6868 4.01022 13.095V7.43727C4.01022 7.37467 4.01662 7.31381 4.02702 7.25401L9.68094 10.7796C9.68787 10.7839 9.69527 10.7868 9.7024 10.7908C9.70987 10.795 9.71747 10.799 9.72507 10.8028C9.765 10.8234 9.80614 10.84 9.84821 10.8508C9.85254 10.852 9.85687 10.8526 9.86121 10.8536C9.90734 10.8644 9.95407 10.8712 10.0007 10.8712H10.0011C10.0014 10.8712 10.0017 10.8712 10.0017 10.8712C10.0484 10.8712 10.0951 10.8646 10.1413 10.8536C10.1456 10.8525 10.1499 10.852 10.1543 10.8508C10.1963 10.84 10.2373 10.8234 10.2774 10.8028C10.285 10.799 10.2926 10.795 10.3001 10.7908C10.3071 10.7868 10.3146 10.7839 10.3215 10.7796L15.9755 7.25401C15.9859 7.31381 15.9923 7.37454 15.9923 7.43727V13.095Z" fill="#2E2E2E"/>
</svg>
