<svg width="20" height="20" viewBox="0 0 20 20" fill="none" xmlns="http://www.w3.org/2000/svg">
<path d="M10 0C8.02219 0 6.08879 0.586489 4.4443 1.6853C2.79981 2.78412 1.51809 4.3459 0.761209 6.17317C0.00433261 8.00043 -0.1937 10.0111 0.192152 11.9509C0.578004 13.8907 1.53041 15.6725 2.92894 17.0711C4.32746 18.4696 6.10929 19.422 8.0491 19.8079C9.98891 20.1937 11.9996 19.9957 13.8268 19.2388C15.6541 18.4819 17.2159 17.2002 18.3147 15.5557C19.4135 13.9112 20 11.9778 20 10C20 7.34784 18.9464 4.8043 17.0711 2.92893C15.1957 1.05357 12.6522 0 10 0ZM15.6426 14.0439L15.042 15.0439C14.882 15.3138 14.6243 15.5118 14.3223 15.5969C13.3248 15.8708 11.1248 15.926 7.59875 12.3994C4.07273 8.87273 4.1279 6.67335 4.40126 5.67586C4.48724 5.37389 4.68615 5.11661 4.95674 4.95737L5.95674 4.35737C6.06682 4.29216 6.19766 4.27148 6.32249 4.29957C6.44731 4.32766 6.55668 4.40239 6.62822 4.50846L7.49844 5.81129L8.22571 6.90282C8.29423 7.00806 8.32078 7.13516 8.30011 7.25903C8.27945 7.38289 8.21308 7.49449 8.11411 7.57179L7.21881 8.26834C7.12484 8.34075 7.0599 8.44442 7.03575 8.56058C7.0116 8.67673 7.02983 8.7977 7.08715 8.90157C7.35047 9.3743 7.59938 9.93166 8.83261 11.1668C10.0658 12.4019 10.6251 12.6489 11.0978 12.9116C11.2016 12.9692 11.3225 12.9877 11.4388 12.9637C11.555 12.9396 11.6587 12.8746 11.731 12.7806L12.4276 11.8853C12.5053 11.7865 12.6172 11.7205 12.7411 11.7003C12.8651 11.6801 12.9922 11.7072 13.0972 11.7762L14.2257 12.5285L15.4922 13.373C15.5975 13.4449 15.6715 13.5542 15.6991 13.6787C15.7267 13.8032 15.7058 13.9336 15.6408 14.0433L15.6426 14.0439Z" fill="#2E2E2E"/>
</svg>
