<svg width="63" height="46" viewBox="0 0 63 46" fill="none" xmlns="http://www.w3.org/2000/svg">
<path d="M62.6388 14.3687C62.3307 13.9869 61.871 13.764 61.3887 13.764H55.2573C53.7442 9.70973 51.7729 5.73739 49.5323 4.23793C41.7813 -0.942183 21.2222 -0.942183 13.4712 4.23793C11.229 5.73903 9.26586 9.71629 7.7447 13.764H1.61327C1.12611 13.764 0.667983 13.9869 0.363105 14.3687C0.0566137 14.7489 -0.0659827 15.252 0.0340302 15.7354L0.942211 20.206C1.09707 20.968 1.75845 21.5121 2.52145 21.5121H4.33781C2.58436 23.5671 1.73425 26.1547 1.72296 28.7439C1.71166 31.9427 2.90698 34.8335 5.09274 36.8787C5.11694 36.9 5.14114 36.9147 5.16372 36.936V43.1912C5.16372 44.5464 6.24773 45.6493 7.58339 45.6493H13.239C14.5746 45.6493 15.6586 44.5464 15.6586 43.1912V40.6773H47.3417V43.1912C47.3417 44.5464 48.4257 45.6493 49.7614 45.6493H55.417C56.7494 45.6493 57.8366 44.5464 57.8366 43.1912V37.0589C60.1563 34.9007 61.2645 31.9313 61.279 28.9668C61.2887 26.289 60.3998 23.6064 58.5432 21.5088H60.4805C61.2467 21.5088 61.9081 20.9647 62.0597 20.2011L62.9695 15.7322C63.0631 15.252 62.9453 14.7522 62.6388 14.3687ZM16.128 8.34301C22.3062 4.21171 40.6941 4.21171 46.8691 8.34301C48.0692 9.14272 49.613 12.376 51.0277 16.3352H11.9727C13.3841 12.3776 14.9279 9.146 16.128 8.34301ZM8.89162 29.3601C8.89162 26.6889 11.0242 24.5257 13.6519 24.5257C16.2829 24.5257 18.4122 26.6889 18.4122 29.3601C18.4122 32.0312 16.2829 34.196 13.6519 34.196C11.0242 34.196 8.89162 32.0312 8.89162 29.3601ZM49.4113 34.196C46.7836 34.196 44.6511 32.0312 44.6511 29.3601C44.6511 26.6889 46.7836 24.5257 49.4113 24.5257C52.0423 24.5257 54.1716 26.6889 54.1716 29.3601C54.1716 32.0312 52.0391 34.196 49.4113 34.196Z" fill="#131313"/>
</svg>
