<svg width="54" height="54" viewBox="0 0 54 54" fill="none" xmlns="http://www.w3.org/2000/svg">
<path d="M50.8359 2.63672H3.16406C1.41961 2.63672 0 4.05633 0 5.80078V37.2305C0 38.9749 1.41961 40.3945 3.16406 40.3945H50.8359C52.5804 40.3945 54 38.9749 54 37.2305V5.80078C54 4.05633 52.5804 2.63672 50.8359 2.63672Z" fill="#131313"/>
<path d="M43.875 48.1992H35.332V43.5586H18.668V48.1992H10.125C9.25172 48.1992 8.54297 48.908 8.54297 49.7812C8.54297 50.6545 9.25172 51.3633 10.125 51.3633H43.875C44.7483 51.3633 45.457 50.6545 45.457 49.7812C45.457 48.908 44.7483 48.1992 43.875 48.1992Z" fill="#131313"/>
</svg>
