<svg width="56" height="57" viewBox="0 0 56 57" fill="none" xmlns="http://www.w3.org/2000/svg">
<path d="M8.3125 26.7188C9.63611 26.7188 10.8341 26.1782 11.7194 25.3102L16.5759 27.7816C16.5515 27.9829 16.5156 28.1808 16.5156 28.3887C16.5156 31.151 18.7236 33.3984 21.4375 33.3984C24.1514 33.3984 26.3594 31.151 26.3594 28.3887C26.3594 27.6176 26.1731 26.8957 25.8659 26.2426L32.454 19.5368C33.0958 19.8495 33.805 20.0391 34.5625 20.0391C37.2764 20.0391 39.4844 17.7916 39.4844 15.0293C39.4844 14.5092 39.384 14.0173 39.2387 13.5455L44.963 9.17674C45.744 9.70773 46.6801 10.0195 47.6875 10.0195C50.4014 10.0195 52.6094 7.77209 52.6094 5.00977C52.6094 2.24744 50.4014 0 47.6875 0C44.9736 0 42.7656 2.24744 42.7656 5.00977C42.7656 5.52988 42.866 6.02172 43.0113 6.49356L37.287 10.8623C36.506 10.3313 35.5699 10.0195 34.5625 10.0195C31.8486 10.0195 29.6406 12.267 29.6406 15.0293C29.6406 15.8003 29.8269 16.5222 30.1341 17.1754L23.546 23.8812C22.9042 23.5685 22.195 23.3789 21.4375 23.3789C20.1139 23.3789 18.9159 23.9195 18.0306 24.7875L13.1741 22.3161C13.1985 22.1147 13.2344 21.9169 13.2344 21.709C13.2344 18.9467 11.0264 16.6992 8.3125 16.6992C5.59863 16.6992 3.39062 18.9467 3.39062 21.709C3.39062 24.4713 5.59863 26.7188 8.3125 26.7188Z" fill="#131313"/>
<path d="M54.3594 53.6602H52.6094V18.3691C52.6094 17.4463 51.8754 16.6992 50.9688 16.6992H44.4062C43.4996 16.6992 42.7656 17.4463 42.7656 18.3691V53.6602H39.4844V28.3887C39.4844 27.4659 38.7504 26.7188 37.8438 26.7188H31.2812C30.3746 26.7188 29.6406 27.4659 29.6406 28.3887V53.6602H26.3594V41.748C26.3594 40.8252 25.6254 40.0781 24.7188 40.0781H18.1562C17.2496 40.0781 16.5156 40.8252 16.5156 41.748V53.6602H13.2344V35.0684C13.2344 34.1456 12.5004 33.3984 11.5938 33.3984H5.03125C4.12463 33.3984 3.39062 34.1456 3.39062 35.0684V53.6602H1.64062C0.734009 53.6602 0 54.4073 0 55.3301C0 56.2529 0.734009 57 1.64062 57H54.3594C55.266 57 56 56.2529 56 55.3301C56 54.4073 55.266 53.6602 54.3594 53.6602Z" fill="#131313"/>
</svg>
