<svg width="54" height="55" viewBox="0 0 54 55" fill="none" xmlns="http://www.w3.org/2000/svg">
<g clip-path="url(#clip0)">
<path d="M26.6152 26.4937C30.1888 26.4937 33.2832 25.1882 35.8116 22.6126C38.34 20.0375 39.6216 16.8866 39.6216 13.2464C39.6216 9.60751 38.34 6.4562 35.8112 3.88018C33.2824 1.30542 30.1884 0 26.6152 0C23.0412 0 19.9476 1.30542 17.4192 3.8806C14.8909 6.45578 13.6088 9.60709 13.6088 13.2464C13.6088 16.8866 14.8909 20.0379 17.4196 22.6131C19.9484 25.1878 23.0424 26.4937 26.6152 26.4937Z" fill="#131313"/>
<path d="M49.373 42.2922C49.3 41.2205 49.1526 40.0514 48.9354 38.8169C48.7163 37.5732 48.4341 36.3974 48.0962 35.3228C47.7473 34.212 47.2727 33.1152 46.686 32.064C46.0771 30.973 45.3619 30.023 44.5593 29.2413C43.7201 28.4235 42.6926 27.7659 41.5044 27.2863C40.3204 26.8092 39.0082 26.5675 37.6046 26.5675C37.0533 26.5675 36.5202 26.7979 35.4906 27.4806C34.857 27.9015 34.1158 28.3882 33.2886 28.9266C32.5812 29.3856 31.6229 29.8157 30.4393 30.2051C29.2845 30.5857 28.112 30.7788 26.9547 30.7788C25.7974 30.7788 24.6253 30.5857 23.4693 30.2051C22.2869 29.8162 21.3286 29.3861 20.622 28.927C19.8026 28.3937 19.061 27.9069 18.4179 27.4802C17.3896 26.7974 16.856 26.5671 16.3048 26.5671C14.9008 26.5671 13.589 26.8092 12.4053 27.2867C11.218 27.7655 10.1901 28.423 9.35005 29.2417C8.54791 30.0239 7.83229 30.9735 7.2242 32.064C6.63794 33.1152 6.16333 34.2116 5.81396 35.3232C5.47655 36.3978 5.19434 37.5732 4.97516 38.8169C4.75804 40.0497 4.61055 41.2192 4.53763 42.2934C4.46594 43.3458 4.42969 44.4381 4.42969 45.5412C4.42969 48.4122 5.32576 50.7365 7.09277 52.4506C8.83795 54.1421 11.1471 55.0002 13.9552 55.0002H39.9566C42.7647 55.0002 45.0731 54.1425 46.8186 52.4506C48.5861 50.7377 49.4821 48.4131 49.4821 45.5408C49.4817 44.4326 49.4451 43.3395 49.373 42.2922Z" fill="#131313"/>
</g>
<defs>
<clipPath id="clip0">
<rect width="54" height="55" fill="white"/>
</clipPath>
</defs>
</svg>
